<svg width="330" height="280" viewBox="0 0 330 280" fill="none" xmlns="http://www.w3.org/2000/svg">
<rect width="330" height="280" rx="12" fill="#292C34"/>
<rect x="12" y="12" width="306" height="156" rx="8" fill="#878EA1"/>
<path d="M20.112 207.032C19.472 207.032 19.152 206.861 19.152 206.52V197.896H16.608C16.288 197.896 16.128 197.629 16.128 197.096V196.6C16.128 196.067 16.288 195.8 16.608 195.8H24.176C24.496 195.8 24.656 196.067 24.656 196.6V197.096C24.656 197.629 24.496 197.896 24.176 197.896H21.632V206.52C21.632 206.861 21.312 207.032 20.672 207.032H20.112ZM26.3728 207.032C25.7328 207.032 25.4128 206.861 25.4128 206.52V199.112C25.4128 198.771 25.7328 198.6 26.3728 198.6H26.8207C27.4608 198.6 27.7808 198.771 27.7808 199.112V206.52C27.7808 206.861 27.4608 207.032 26.8207 207.032H26.3728ZM26.5968 197.816C26.1808 197.816 25.8768 197.773 25.6848 197.688C25.5034 197.603 25.4128 197.475 25.4128 197.304V196.056C25.4128 195.885 25.5034 195.757 25.6848 195.672C25.8768 195.587 26.1808 195.544 26.5968 195.544C27.0128 195.544 27.3114 195.587 27.4928 195.672C27.6848 195.757 27.7808 195.885 27.7808 196.056V197.304C27.7808 197.475 27.6848 197.603 27.4928 197.688C27.3114 197.773 27.0128 197.816 26.5968 197.816ZM32.2711 207.128C31.8978 207.128 31.5618 207.08 31.2631 206.984C30.9751 206.877 30.7298 206.717 30.5271 206.504C30.3351 206.291 30.1858 206.024 30.0791 205.704C29.9831 205.373 29.9351 204.984 29.9351 204.536V200.504H29.6791C29.3591 200.504 29.1991 200.237 29.1991 199.704V199.432C29.1991 198.899 29.3591 198.632 29.6791 198.632H29.9351L30.1431 197.112C30.1965 196.771 30.4845 196.6 31.0071 196.6H31.5031C32.0365 196.6 32.3031 196.771 32.3031 197.112V198.632H33.0871C33.4071 198.632 33.5671 198.899 33.5671 199.432V199.704C33.5671 200.237 33.4071 200.504 33.0871 200.504H32.3031V204.568C32.3031 204.803 32.3458 204.979 32.4311 205.096C32.5271 205.203 32.6765 205.256 32.8791 205.256C32.9538 205.256 33.0338 205.245 33.1191 205.224C33.2045 205.203 33.2685 205.192 33.3111 205.192C33.4178 205.192 33.5085 205.283 33.5831 205.464C33.6578 205.635 33.7111 205.816 33.7431 206.008C33.7858 206.189 33.8071 206.301 33.8071 206.344C33.8071 206.589 33.7111 206.771 33.5191 206.888C33.3378 206.995 33.1245 207.059 32.8791 207.08C32.6445 207.112 32.4418 207.128 32.2711 207.128ZM37.5159 207.128C37.1425 207.128 36.8065 207.08 36.5079 206.984C36.2199 206.877 35.9745 206.717 35.7719 206.504C35.5799 206.291 35.4305 206.024 35.3239 205.704C35.2279 205.373 35.1799 204.984 35.1799 204.536V195.448C35.1799 195.107 35.4999 194.936 36.1399 194.936H36.5879C37.2279 194.936 37.5479 195.107 37.5479 195.448V204.568C37.5479 204.803 37.5905 204.979 37.6759 205.096C37.7719 205.203 37.9212 205.256 38.1239 205.256C38.1985 205.256 38.2785 205.245 38.3639 205.224C38.4492 205.203 38.5132 205.192 38.5559 205.192C38.6625 205.192 38.7532 205.283 38.8279 205.464C38.9025 205.635 38.9559 205.816 38.9879 206.008C39.0305 206.189 39.0519 206.301 39.0519 206.344C39.0519 206.589 38.9559 206.771 38.7639 206.888C38.5825 206.995 38.3692 207.059 38.1239 207.08C37.8892 207.112 37.6865 207.128 37.5159 207.128ZM43.2386 207.128C41.788 207.128 40.7266 206.744 40.0546 205.976C39.3933 205.197 39.0626 204.163 39.0626 202.872C39.0626 201.816 39.228 200.968 39.5586 200.328C39.8893 199.688 40.348 199.224 40.9346 198.936C41.5213 198.648 42.1933 198.504 42.9506 198.504C43.7933 198.504 44.4653 198.696 44.9666 199.08C45.468 199.453 45.8306 199.955 46.0546 200.584C46.2893 201.203 46.4066 201.885 46.4066 202.632C46.4066 202.717 46.3533 202.84 46.2466 203C46.14 203.149 46.0226 203.283 45.8946 203.4C45.7666 203.517 45.6653 203.576 45.5906 203.576H41.5106C41.564 204.216 41.7506 204.659 42.0706 204.904C42.4013 205.139 42.828 205.256 43.3506 205.256C43.692 205.256 43.9906 205.213 44.2466 205.128C44.5133 205.043 44.732 204.963 44.9026 204.888C45.084 204.803 45.212 204.76 45.2866 204.76C45.404 204.76 45.5266 204.84 45.6546 205C45.7826 205.16 45.8893 205.336 45.9746 205.528C46.0706 205.72 46.1186 205.869 46.1186 205.976C46.1186 206.179 46.012 206.355 45.7986 206.504C45.596 206.643 45.3346 206.76 45.0146 206.856C44.7053 206.952 44.3853 207.021 44.0546 207.064C43.7346 207.107 43.4626 207.128 43.2386 207.128ZM41.5106 201.992H44.1026C44.1026 201.523 44.012 201.139 43.8306 200.84C43.6493 200.531 43.356 200.376 42.9506 200.376C42.62 200.376 42.3213 200.493 42.0546 200.728C41.788 200.952 41.6066 201.373 41.5106 201.992Z" fill="#E2E4E9"/>
<path d="M17.19 234V224.662H18.198V233.02H22.972V234H17.19ZM27.3181 234.21C26.2261 234.21 25.4141 233.888 24.8821 233.244C24.3595 232.591 24.0981 231.685 24.0981 230.528C24.0981 229.315 24.3735 228.405 24.9241 227.798C25.4841 227.191 26.2728 226.888 27.2901 226.888C28.0461 226.888 28.6621 227.042 29.1381 227.35C29.6141 227.649 29.9641 228.073 30.1881 228.624C30.4121 229.165 30.5241 229.8 30.5241 230.528C30.5241 231.676 30.2441 232.577 29.6841 233.23C29.1335 233.883 28.3448 234.21 27.3181 234.21ZM27.3041 233.286C27.8735 233.286 28.3168 233.165 28.6341 232.922C28.9515 232.67 29.1755 232.339 29.3061 231.928C29.4461 231.508 29.5161 231.041 29.5161 230.528C29.5161 229.977 29.4461 229.501 29.3061 229.1C29.1661 228.689 28.9328 228.372 28.6061 228.148C28.2888 227.924 27.8548 227.812 27.3041 227.812C26.7441 227.812 26.3055 227.933 25.9881 228.176C25.6708 228.419 25.4421 228.745 25.3021 229.156C25.1715 229.557 25.1061 230.015 25.1061 230.528C25.1061 231.349 25.2695 232.017 25.5961 232.53C25.9228 233.034 26.4921 233.286 27.3041 233.286ZM32.4188 234V227.574C32.5308 227.527 32.7455 227.448 33.0628 227.336C33.3895 227.224 33.7768 227.121 34.2248 227.028C34.6822 226.935 35.1535 226.888 35.6388 226.888C35.7135 226.888 35.7882 226.897 35.8628 226.916C35.9375 226.935 36.0122 226.953 36.0868 226.972V227.868C35.8442 227.84 35.6062 227.826 35.3728 227.826C35.1488 227.826 34.9295 227.84 34.7148 227.868C34.5002 227.887 34.2855 227.915 34.0708 227.952C33.8562 227.989 33.6415 228.027 33.4268 228.064V234H32.4188ZM40.088 234.21C39.4253 234.21 38.8513 234.075 38.366 233.804C37.8807 233.524 37.5073 233.109 37.246 232.558C36.9847 232.007 36.854 231.321 36.854 230.5C36.854 229.296 37.1247 228.395 37.666 227.798C38.2167 227.191 38.968 226.888 39.92 226.888C40.6667 226.888 41.264 227.056 41.712 227.392C42.1693 227.728 42.496 228.181 42.692 228.75C42.888 229.319 42.9813 229.963 42.972 230.682H37.358L37.428 229.758H42.314L41.922 229.898C41.894 229.198 41.7167 228.675 41.39 228.33C41.0727 227.985 40.5827 227.812 39.92 227.812C39.4627 227.812 39.08 227.896 38.772 228.064C38.4733 228.232 38.2493 228.526 38.1 228.946C37.9507 229.357 37.876 229.935 37.876 230.682C37.876 231.531 38.072 232.18 38.464 232.628C38.8653 233.067 39.4253 233.286 40.144 233.286C40.4893 233.286 40.8067 233.263 41.096 233.216C41.3853 233.16 41.6513 233.085 41.894 232.992C42.1367 232.899 42.3513 232.796 42.538 232.684V233.72C42.202 233.879 41.8287 234 41.418 234.084C41.0167 234.168 40.5733 234.21 40.088 234.21ZM50.5862 229.45V234H49.5782V229.45C49.5782 229.282 49.5549 229.105 49.5082 228.918C49.4709 228.731 49.3916 228.554 49.2702 228.386C49.1489 228.209 48.9622 228.069 48.7102 227.966C48.4582 227.854 48.1222 227.798 47.7022 227.798C47.4129 227.798 47.1142 227.821 46.8062 227.868C46.4982 227.915 46.1856 227.985 45.8682 228.078V234H44.8602V227.574C45.0842 227.462 45.3129 227.364 45.5462 227.28C45.7889 227.187 46.0316 227.112 46.2742 227.056C46.5262 227 46.7782 226.958 47.0302 226.93C47.2916 226.902 47.5529 226.888 47.8142 226.888C48.4956 226.888 49.0369 226.991 49.4382 227.196C49.8396 227.392 50.1289 227.681 50.3062 228.064C50.4929 228.447 50.5862 228.909 50.5862 229.45ZM49.2562 227.854C49.5642 227.621 49.8769 227.434 50.1942 227.294C50.5116 227.154 50.8382 227.051 51.1742 226.986C51.5196 226.921 51.8649 226.888 52.2102 226.888C52.8916 226.888 53.4329 226.991 53.8342 227.196C54.2356 227.392 54.5249 227.681 54.7022 228.064C54.8889 228.447 54.9822 228.909 54.9822 229.45V234H53.9742V229.45C53.9742 229.282 53.9509 229.105 53.9042 228.918C53.8669 228.731 53.7876 228.554 53.6662 228.386C53.5449 228.209 53.3582 228.069 53.1062 227.966C52.8542 227.854 52.5182 227.798 52.0982 227.798C51.8089 227.798 51.5102 227.84 51.2022 227.924C50.8942 228.008 50.5816 228.153 50.2642 228.358L49.2562 227.854ZM61.3362 234V227.014H62.3442V234H61.3362ZM61.2802 225.768V224.662H62.4002V225.768H61.2802ZM67.3874 234.196C67.1821 234.196 66.9488 234.168 66.6874 234.112C66.4354 234.056 66.1881 233.986 65.9454 233.902C65.7028 233.818 65.4881 233.729 65.3014 233.636L65.6514 233.286V237.038H64.6434V228.274C64.6434 227.985 64.7321 227.751 64.9094 227.574C65.0961 227.397 65.3341 227.261 65.6234 227.168C65.9128 227.065 66.2208 226.995 66.5474 226.958C66.8741 226.911 67.1821 226.888 67.4714 226.888C68.0314 226.888 68.5588 227.005 69.0534 227.238C69.5481 227.471 69.9494 227.868 70.2574 228.428C70.5654 228.979 70.7194 229.73 70.7194 230.682C70.7194 231.401 70.5888 232.026 70.3274 232.558C70.0754 233.081 69.7021 233.487 69.2074 233.776C68.7128 234.056 68.1061 234.196 67.3874 234.196ZM67.3874 233.272C67.9008 233.272 68.3208 233.165 68.6474 232.95C68.9834 232.726 69.2354 232.418 69.4034 232.026C69.5714 231.634 69.6554 231.186 69.6554 230.682C69.6554 230.178 69.5994 229.707 69.4874 229.268C69.3754 228.829 69.1608 228.479 68.8434 228.218C68.5261 227.947 68.0641 227.812 67.4574 227.812C66.9721 227.812 66.5474 227.868 66.1834 227.98C65.8288 228.092 65.6514 228.251 65.6514 228.456V232.782C65.9408 232.95 66.2301 233.076 66.5194 233.16C66.8088 233.235 67.0981 233.272 67.3874 233.272ZM74.5881 234.21C74.0841 234.21 73.6595 234.159 73.3141 234.056C72.9781 233.953 72.6281 233.809 72.2641 233.622V232.558C72.5535 232.717 72.8101 232.852 73.0341 232.964C73.2581 233.076 73.4868 233.16 73.7201 233.216C73.9535 233.263 74.2195 233.286 74.5181 233.286C74.9848 233.286 75.3628 233.183 75.6521 232.978C75.9508 232.773 76.1001 232.507 76.1001 232.18C76.1001 231.919 76.0255 231.718 75.8761 231.578C75.7361 231.438 75.5541 231.321 75.3301 231.228C75.1061 231.135 74.8728 231.037 74.6301 230.934C74.3595 230.859 74.0841 230.78 73.8041 230.696C73.5335 230.603 73.2815 230.486 73.0481 230.346C72.8241 230.197 72.6421 230.01 72.5021 229.786C72.3621 229.553 72.2921 229.254 72.2921 228.89C72.2921 228.535 72.3621 228.232 72.5021 227.98C72.6515 227.728 72.8428 227.523 73.0761 227.364C73.3095 227.196 73.5708 227.075 73.8601 227C74.1495 226.925 74.4388 226.888 74.7281 226.888C75.1481 226.888 75.5075 226.944 75.8061 227.056C76.1048 227.168 76.4128 227.294 76.7301 227.434V228.442C76.3755 228.255 76.0581 228.106 75.7781 227.994C75.4981 227.873 75.1668 227.812 74.7841 227.812C74.4015 227.812 74.0561 227.891 73.7481 228.05C73.4495 228.199 73.3001 228.433 73.3001 228.75C73.3001 229.011 73.3748 229.221 73.5241 229.38C73.6828 229.529 73.8881 229.651 74.1401 229.744C74.3921 229.828 74.6628 229.912 74.9521 229.996C75.1855 230.071 75.4281 230.155 75.6801 230.248C75.9321 230.332 76.1655 230.449 76.3801 230.598C76.5948 230.738 76.7675 230.925 76.8981 231.158C77.0381 231.391 77.1081 231.69 77.1081 232.054C77.1081 232.549 76.9821 232.959 76.7301 233.286C76.4781 233.603 76.1561 233.837 75.7641 233.986C75.3815 234.135 74.9895 234.21 74.5881 234.21ZM81.9249 234.21C81.3089 234.21 80.7816 234.103 80.3429 233.888C79.9042 233.673 79.5682 233.361 79.3349 232.95C79.1109 232.539 78.9989 232.035 78.9989 231.438V227.014H80.0069V231.214C80.0069 231.923 80.1609 232.446 80.4689 232.782C80.7862 233.109 81.2716 233.272 81.9249 233.272C82.5782 233.272 83.0589 233.109 83.3669 232.782C83.6842 232.446 83.8429 231.923 83.8429 231.214V227.014H84.8509V231.438C84.8509 232.325 84.5942 233.011 84.0809 233.496C83.5769 233.972 82.8582 234.21 81.9249 234.21ZM92.8187 229.45V234H91.8107V229.45C91.8107 229.282 91.7873 229.105 91.7407 228.918C91.7033 228.731 91.624 228.554 91.5027 228.386C91.3813 228.209 91.1947 228.069 90.9427 227.966C90.6907 227.854 90.3547 227.798 89.9347 227.798C89.6453 227.798 89.3467 227.821 89.0387 227.868C88.7307 227.915 88.418 227.985 88.1007 228.078V234H87.0927V227.574C87.3167 227.462 87.5453 227.364 87.7787 227.28C88.0213 227.187 88.264 227.112 88.5067 227.056C88.7587 227 89.0107 226.958 89.2627 226.93C89.524 226.902 89.7853 226.888 90.0467 226.888C90.728 226.888 91.2693 226.991 91.6707 227.196C92.072 227.392 92.3613 227.681 92.5387 228.064C92.7253 228.447 92.8187 228.909 92.8187 229.45ZM91.4887 227.854C91.7967 227.621 92.1093 227.434 92.4267 227.294C92.744 227.154 93.0707 227.051 93.4067 226.986C93.752 226.921 94.0973 226.888 94.4427 226.888C95.124 226.888 95.6653 226.991 96.0667 227.196C96.468 227.392 96.7573 227.681 96.9347 228.064C97.1213 228.447 97.2147 228.909 97.2147 229.45V234H96.2067V229.45C96.2067 229.282 96.1833 229.105 96.1367 228.918C96.0993 228.731 96.02 228.554 95.8987 228.386C95.7773 228.209 95.5907 228.069 95.3387 227.966C95.0867 227.854 94.7507 227.798 94.3307 227.798C94.0413 227.798 93.7427 227.84 93.4347 227.924C93.1267 228.008 92.814 228.153 92.4967 228.358L91.4887 227.854ZM106.411 234.21C106.075 234.21 105.72 234.159 105.347 234.056C104.973 233.963 104.619 233.785 104.283 233.524C103.956 233.253 103.685 232.871 103.471 232.376C103.265 231.872 103.163 231.219 103.163 230.416C103.163 229.333 103.424 228.479 103.947 227.854C104.479 227.219 105.281 226.902 106.355 226.902C106.56 226.902 106.803 226.93 107.083 226.986C107.363 227.042 107.638 227.112 107.909 227.196C108.179 227.28 108.403 227.369 108.581 227.462L108.231 227.812V224.06H109.239V232.796C109.239 233.057 109.145 233.281 108.959 233.468C108.781 233.645 108.548 233.79 108.259 233.902C107.969 234.005 107.661 234.079 107.335 234.126C107.008 234.182 106.7 234.21 106.411 234.21ZM106.425 233.286C106.91 233.286 107.33 233.23 107.685 233.118C108.049 233.006 108.231 232.866 108.231 232.698V228.316C107.941 228.148 107.629 228.027 107.293 227.952C106.966 227.868 106.653 227.826 106.355 227.826C105.851 227.826 105.44 227.938 105.123 228.162C104.815 228.377 104.586 228.68 104.437 229.072C104.297 229.455 104.227 229.903 104.227 230.416C104.227 230.92 104.283 231.391 104.395 231.83C104.507 232.259 104.721 232.609 105.039 232.88C105.356 233.151 105.818 233.286 106.425 233.286ZM114.353 234.21C113.261 234.21 112.449 233.888 111.917 233.244C111.395 232.591 111.133 231.685 111.133 230.528C111.133 229.315 111.409 228.405 111.959 227.798C112.519 227.191 113.308 226.888 114.325 226.888C115.081 226.888 115.697 227.042 116.173 227.35C116.649 227.649 116.999 228.073 117.223 228.624C117.447 229.165 117.559 229.8 117.559 230.528C117.559 231.676 117.279 232.577 116.719 233.23C116.169 233.883 115.38 234.21 114.353 234.21ZM114.339 233.286C114.909 233.286 115.352 233.165 115.669 232.922C115.987 232.67 116.211 232.339 116.341 231.928C116.481 231.508 116.551 231.041 116.551 230.528C116.551 229.977 116.481 229.501 116.341 229.1C116.201 228.689 115.968 228.372 115.641 228.148C115.324 227.924 114.89 227.812 114.339 227.812C113.779 227.812 113.341 227.933 113.023 228.176C112.706 228.419 112.477 228.745 112.337 229.156C112.207 229.557 112.141 230.015 112.141 230.528C112.141 231.349 112.305 232.017 112.631 232.53C112.958 233.034 113.527 233.286 114.339 233.286ZM120.462 234H119.454V224.354H120.462V234ZM125.578 234.21C124.486 234.21 123.674 233.888 123.142 233.244C122.619 232.591 122.358 231.685 122.358 230.528C122.358 229.315 122.633 228.405 123.184 227.798C123.744 227.191 124.533 226.888 125.55 226.888C126.306 226.888 126.922 227.042 127.398 227.35C127.874 227.649 128.224 228.073 128.448 228.624C128.672 229.165 128.784 229.8 128.784 230.528C128.784 231.676 128.504 232.577 127.944 233.23C127.393 233.883 126.605 234.21 125.578 234.21ZM125.564 233.286C126.133 233.286 126.577 233.165 126.894 232.922C127.211 232.67 127.435 232.339 127.566 231.928C127.706 231.508 127.776 231.041 127.776 230.528C127.776 229.977 127.706 229.501 127.566 229.1C127.426 228.689 127.193 228.372 126.866 228.148C126.549 227.924 126.115 227.812 125.564 227.812C125.004 227.812 124.565 227.933 124.248 228.176C123.931 228.419 123.702 228.745 123.562 229.156C123.431 229.557 123.366 230.015 123.366 230.528C123.366 231.349 123.529 232.017 123.856 232.53C124.183 233.034 124.752 233.286 125.564 233.286ZM130.679 234V227.574C130.791 227.527 131.005 227.448 131.323 227.336C131.649 227.224 132.037 227.121 132.485 227.028C132.942 226.935 133.413 226.888 133.899 226.888C133.973 226.888 134.048 226.897 134.123 226.916C134.197 226.935 134.272 226.953 134.347 226.972V227.868C134.104 227.84 133.866 227.826 133.633 227.826C133.409 227.826 133.189 227.84 132.975 227.868C132.76 227.887 132.545 227.915 132.331 227.952C132.116 227.989 131.901 228.027 131.687 228.064V234H130.679ZM141.99 234.21C141.486 234.21 141.062 234.159 140.716 234.056C140.38 233.953 140.03 233.809 139.666 233.622V232.558C139.956 232.717 140.212 232.852 140.436 232.964C140.66 233.076 140.889 233.16 141.122 233.216C141.356 233.263 141.622 233.286 141.92 233.286C142.387 233.286 142.765 233.183 143.054 232.978C143.353 232.773 143.502 232.507 143.502 232.18C143.502 231.919 143.428 231.718 143.278 231.578C143.138 231.438 142.956 231.321 142.732 231.228C142.508 231.135 142.275 231.037 142.032 230.934C141.762 230.859 141.486 230.78 141.206 230.696C140.936 230.603 140.684 230.486 140.45 230.346C140.226 230.197 140.044 230.01 139.904 229.786C139.764 229.553 139.694 229.254 139.694 228.89C139.694 228.535 139.764 228.232 139.904 227.98C140.054 227.728 140.245 227.523 140.478 227.364C140.712 227.196 140.973 227.075 141.262 227C141.552 226.925 141.841 226.888 142.13 226.888C142.55 226.888 142.91 226.944 143.208 227.056C143.507 227.168 143.815 227.294 144.132 227.434V228.442C143.778 228.255 143.46 228.106 143.18 227.994C142.9 227.873 142.569 227.812 142.186 227.812C141.804 227.812 141.458 227.891 141.15 228.05C140.852 228.199 140.702 228.433 140.702 228.75C140.702 229.011 140.777 229.221 140.926 229.38C141.085 229.529 141.29 229.651 141.542 229.744C141.794 229.828 142.065 229.912 142.354 229.996C142.588 230.071 142.83 230.155 143.082 230.248C143.334 230.332 143.568 230.449 143.782 230.598C143.997 230.738 144.17 230.925 144.3 231.158C144.44 231.391 144.51 231.69 144.51 232.054C144.51 232.549 144.384 232.959 144.132 233.286C143.88 233.603 143.558 233.837 143.166 233.986C142.784 234.135 142.392 234.21 141.99 234.21ZM146.457 234V227.014H147.465V234H146.457ZM146.401 225.768V224.662H147.521V225.768H146.401ZM151.963 234.112C151.468 234.112 151.053 233.963 150.717 233.664C150.381 233.356 150.213 232.903 150.213 232.306V227.938H148.995V227.014H150.213V225.04H151.221V227.014H153.027V227.938H151.221V231.984C151.221 232.376 151.281 232.67 151.403 232.866C151.524 233.062 151.771 233.16 152.145 233.16C152.313 233.16 152.476 233.146 152.635 233.118C152.793 233.081 152.924 233.039 153.027 232.992V233.944C152.896 233.991 152.728 234.028 152.523 234.056C152.327 234.093 152.14 234.112 151.963 234.112ZM161.319 234.21C161.011 234.21 160.698 234.177 160.381 234.112C160.073 234.047 159.784 233.935 159.513 233.776C159.252 233.617 159.037 233.403 158.869 233.132C158.71 232.852 158.631 232.502 158.631 232.082C158.631 231.503 158.738 231.041 158.953 230.696C159.177 230.341 159.48 230.089 159.863 229.94C160.255 229.781 160.703 229.702 161.207 229.702C161.59 229.702 161.921 229.725 162.201 229.772C162.481 229.819 162.728 229.889 162.943 229.982C163.167 230.066 163.368 230.164 163.545 230.276L163.741 231.2C163.526 231.041 163.214 230.906 162.803 230.794C162.402 230.673 161.958 230.612 161.473 230.612C160.885 230.612 160.432 230.724 160.115 230.948C159.798 231.172 159.639 231.499 159.639 231.928C159.639 232.273 159.732 232.549 159.919 232.754C160.115 232.959 160.358 233.104 160.647 233.188C160.946 233.272 161.249 233.314 161.557 233.314C162.164 233.314 162.621 233.272 162.929 233.188C163.246 233.095 163.405 232.889 163.405 232.572V229.366C163.405 228.825 163.246 228.428 162.929 228.176C162.612 227.924 162.159 227.798 161.571 227.798C161.198 227.798 160.801 227.854 160.381 227.966C159.97 228.069 159.616 228.237 159.317 228.47V227.462C159.606 227.275 159.994 227.135 160.479 227.042C160.964 226.939 161.436 226.888 161.893 226.888C162.201 226.888 162.486 226.921 162.747 226.986C163.008 227.042 163.242 227.131 163.447 227.252C163.652 227.364 163.825 227.513 163.965 227.7C164.114 227.877 164.226 228.087 164.301 228.33C164.385 228.563 164.427 228.829 164.427 229.128V232.516C164.427 233.011 164.278 233.379 163.979 233.622C163.69 233.865 163.307 234.023 162.831 234.098C162.364 234.173 161.86 234.21 161.319 234.21ZM172.389 229.45V234H171.381V229.45C171.381 229.282 171.358 229.105 171.311 228.918C171.274 228.731 171.194 228.554 171.073 228.386C170.952 228.209 170.765 228.069 170.513 227.966C170.261 227.854 169.925 227.798 169.505 227.798C169.216 227.798 168.917 227.821 168.609 227.868C168.301 227.915 167.988 227.985 167.671 228.078V234H166.663V227.574C166.887 227.462 167.116 227.364 167.349 227.28C167.592 227.187 167.834 227.112 168.077 227.056C168.329 227 168.581 226.958 168.833 226.93C169.094 226.902 169.356 226.888 169.617 226.888C170.298 226.888 170.84 226.991 171.241 227.196C171.642 227.392 171.932 227.681 172.109 228.064C172.296 228.447 172.389 228.909 172.389 229.45ZM171.059 227.854C171.367 227.621 171.68 227.434 171.997 227.294C172.314 227.154 172.641 227.051 172.977 226.986C173.322 226.921 173.668 226.888 174.013 226.888C174.694 226.888 175.236 226.991 175.637 227.196C176.038 227.392 176.328 227.681 176.505 228.064C176.692 228.447 176.785 228.909 176.785 229.45V234H175.777V229.45C175.777 229.282 175.754 229.105 175.707 228.918C175.67 228.731 175.59 228.554 175.469 228.386C175.348 228.209 175.161 228.069 174.909 227.966C174.657 227.854 174.321 227.798 173.901 227.798C173.612 227.798 173.313 227.84 173.005 227.924C172.697 228.008 172.384 228.153 172.067 228.358L171.059 227.854ZM181.906 234.21C181.244 234.21 180.67 234.075 180.184 233.804C179.699 233.524 179.326 233.109 179.064 232.558C178.803 232.007 178.672 231.321 178.672 230.5C178.672 229.296 178.943 228.395 179.484 227.798C180.035 227.191 180.786 226.888 181.738 226.888C182.485 226.888 183.082 227.056 183.53 227.392C183.988 227.728 184.314 228.181 184.51 228.75C184.706 229.319 184.8 229.963 184.79 230.682H179.176L179.246 229.758H184.132L183.74 229.898C183.712 229.198 183.535 228.675 183.208 228.33C182.891 227.985 182.401 227.812 181.738 227.812C181.281 227.812 180.898 227.896 180.59 228.064C180.292 228.232 180.068 228.526 179.918 228.946C179.769 229.357 179.694 229.935 179.694 230.682C179.694 231.531 179.89 232.18 180.282 232.628C180.684 233.067 181.244 233.286 181.962 233.286C182.308 233.286 182.625 233.263 182.914 233.216C183.204 233.16 183.47 233.085 183.712 232.992C183.955 232.899 184.17 232.796 184.356 232.684V233.72C184.02 233.879 183.647 234 183.236 234.084C182.835 234.168 182.392 234.21 181.906 234.21ZM188.877 234.112C188.382 234.112 187.967 233.963 187.631 233.664C187.295 233.356 187.127 232.903 187.127 232.306V227.938H185.909V227.014H187.127V225.04H188.135V227.014H189.941V227.938H188.135V231.984C188.135 232.376 188.195 232.67 188.317 232.866C188.438 233.062 188.685 233.16 189.059 233.16C189.227 233.16 189.39 233.146 189.549 233.118C189.707 233.081 189.838 233.039 189.941 232.992V233.944C189.81 233.991 189.642 234.028 189.437 234.056C189.241 234.093 189.054 234.112 188.877 234.112ZM198.751 234.112C198.378 234.112 197.995 234.065 197.603 233.972C197.22 233.869 196.866 233.692 196.539 233.44C196.222 233.179 195.965 232.81 195.769 232.334C195.573 231.858 195.475 231.247 195.475 230.5C195.475 229.753 195.573 229.147 195.769 228.68C195.965 228.204 196.222 227.835 196.539 227.574C196.866 227.313 197.22 227.135 197.603 227.042C197.995 226.939 198.378 226.888 198.751 226.888C199.106 226.888 199.456 226.921 199.801 226.986C200.156 227.051 200.496 227.149 200.823 227.28V228.246C200.515 228.115 200.198 228.017 199.871 227.952C199.544 227.887 199.208 227.854 198.863 227.854C198.032 227.854 197.426 228.064 197.043 228.484C196.67 228.904 196.483 229.576 196.483 230.5C196.483 231.433 196.67 232.11 197.043 232.53C197.426 232.941 198.032 233.146 198.863 233.146C199.208 233.146 199.544 233.113 199.871 233.048C200.198 232.983 200.515 232.885 200.823 232.754V233.734C200.496 233.855 200.156 233.949 199.801 234.014C199.456 234.079 199.106 234.112 198.751 234.112ZM205.586 234.21C204.494 234.21 203.682 233.888 203.15 233.244C202.627 232.591 202.366 231.685 202.366 230.528C202.366 229.315 202.641 228.405 203.192 227.798C203.752 227.191 204.54 226.888 205.558 226.888C206.314 226.888 206.93 227.042 207.406 227.35C207.882 227.649 208.232 228.073 208.456 228.624C208.68 229.165 208.792 229.8 208.792 230.528C208.792 231.676 208.512 232.577 207.952 233.23C207.401 233.883 206.612 234.21 205.586 234.21ZM205.572 233.286C206.141 233.286 206.584 233.165 206.902 232.922C207.219 232.67 207.443 232.339 207.574 231.928C207.714 231.508 207.784 231.041 207.784 230.528C207.784 229.977 207.714 229.501 207.574 229.1C207.434 228.689 207.2 228.372 206.874 228.148C206.556 227.924 206.122 227.812 205.572 227.812C205.012 227.812 204.573 227.933 204.256 228.176C203.938 228.419 203.71 228.745 203.57 229.156C203.439 229.557 203.374 230.015 203.374 230.528C203.374 231.349 203.537 232.017 203.864 232.53C204.19 233.034 204.76 233.286 205.572 233.286ZM210.686 227.574C210.91 227.462 211.139 227.364 211.372 227.28C211.615 227.187 211.858 227.112 212.1 227.056C212.352 227 212.604 226.958 212.856 226.93C213.118 226.902 213.379 226.888 213.64 226.888C214.322 226.888 214.863 226.991 215.264 227.196C215.666 227.392 215.955 227.681 216.132 228.064C216.319 228.447 216.412 228.909 216.412 229.45V234H215.404V229.45C215.404 229.282 215.381 229.105 215.334 228.918C215.297 228.731 215.218 228.554 215.096 228.386C214.975 228.209 214.788 228.069 214.536 227.966C214.284 227.854 213.948 227.798 213.528 227.798C213.239 227.798 212.94 227.821 212.632 227.868C212.324 227.915 212.012 227.985 211.694 228.078V234H210.686V227.574ZM220.631 234.21C220.127 234.21 219.702 234.159 219.357 234.056C219.021 233.953 218.671 233.809 218.307 233.622V232.558C218.596 232.717 218.853 232.852 219.077 232.964C219.301 233.076 219.53 233.16 219.763 233.216C219.996 233.263 220.262 233.286 220.561 233.286C221.028 233.286 221.406 233.183 221.695 232.978C221.994 232.773 222.143 232.507 222.143 232.18C222.143 231.919 222.068 231.718 221.919 231.578C221.779 231.438 221.597 231.321 221.373 231.228C221.149 231.135 220.916 231.037 220.673 230.934C220.402 230.859 220.127 230.78 219.847 230.696C219.576 230.603 219.324 230.486 219.091 230.346C218.867 230.197 218.685 230.01 218.545 229.786C218.405 229.553 218.335 229.254 218.335 228.89C218.335 228.535 218.405 228.232 218.545 227.98C218.694 227.728 218.886 227.523 219.119 227.364C219.352 227.196 219.614 227.075 219.903 227C220.192 226.925 220.482 226.888 220.771 226.888C221.191 226.888 221.55 226.944 221.849 227.056C222.148 227.168 222.456 227.294 222.773 227.434V228.442C222.418 228.255 222.101 228.106 221.821 227.994C221.541 227.873 221.21 227.812 220.827 227.812C220.444 227.812 220.099 227.891 219.791 228.05C219.492 228.199 219.343 228.433 219.343 228.75C219.343 229.011 219.418 229.221 219.567 229.38C219.726 229.529 219.931 229.651 220.183 229.744C220.435 229.828 220.706 229.912 220.995 229.996C221.228 230.071 221.471 230.155 221.723 230.248C221.975 230.332 222.208 230.449 222.423 230.598C222.638 230.738 222.81 230.925 222.941 231.158C223.081 231.391 223.151 231.69 223.151 232.054C223.151 232.549 223.025 232.959 222.773 233.286C222.521 233.603 222.199 233.837 221.807 233.986C221.424 234.135 221.032 234.21 220.631 234.21ZM227.926 234.21C227.263 234.21 226.689 234.075 226.204 233.804C225.719 233.524 225.345 233.109 225.084 232.558C224.823 232.007 224.692 231.321 224.692 230.5C224.692 229.296 224.963 228.395 225.504 227.798C226.055 227.191 226.806 226.888 227.758 226.888C228.505 226.888 229.102 227.056 229.55 227.392C230.007 227.728 230.334 228.181 230.53 228.75C230.726 229.319 230.819 229.963 230.81 230.682H225.196L225.266 229.758H230.152L229.76 229.898C229.732 229.198 229.555 228.675 229.228 228.33C228.911 227.985 228.421 227.812 227.758 227.812C227.301 227.812 226.918 227.896 226.61 228.064C226.311 228.232 226.087 228.526 225.938 228.946C225.789 229.357 225.714 229.935 225.714 230.682C225.714 231.531 225.91 232.18 226.302 232.628C226.703 233.067 227.263 233.286 227.982 233.286C228.327 233.286 228.645 233.263 228.934 233.216C229.223 233.16 229.489 233.085 229.732 232.992C229.975 232.899 230.189 232.796 230.376 232.684V233.72C230.04 233.879 229.667 234 229.256 234.084C228.855 234.168 228.411 234.21 227.926 234.21ZM235.624 234.112C235.251 234.112 234.868 234.065 234.476 233.972C234.093 233.869 233.739 233.692 233.412 233.44C233.095 233.179 232.838 232.81 232.642 232.334C232.446 231.858 232.348 231.247 232.348 230.5C232.348 229.753 232.446 229.147 232.642 228.68C232.838 228.204 233.095 227.835 233.412 227.574C233.739 227.313 234.093 227.135 234.476 227.042C234.868 226.939 235.251 226.888 235.624 226.888C235.979 226.888 236.329 226.921 236.674 226.986C237.029 227.051 237.369 227.149 237.696 227.28V228.246C237.388 228.115 237.071 228.017 236.744 227.952C236.417 227.887 236.081 227.854 235.736 227.854C234.905 227.854 234.299 228.064 233.916 228.484C233.543 228.904 233.356 229.576 233.356 230.5C233.356 231.433 233.543 232.11 233.916 232.53C234.299 232.941 234.905 233.146 235.736 233.146C236.081 233.146 236.417 233.113 236.744 233.048C237.071 232.983 237.388 232.885 237.696 232.754V233.734C237.369 233.855 237.029 233.949 236.674 234.014C236.329 234.079 235.979 234.112 235.624 234.112ZM241.787 234.112C241.292 234.112 240.877 233.963 240.541 233.664C240.205 233.356 240.037 232.903 240.037 232.306V227.938H238.819V227.014H240.037V225.04H241.045V227.014H242.851V227.938H241.045V231.984C241.045 232.376 241.105 232.67 241.227 232.866C241.348 233.062 241.595 233.16 241.969 233.16C242.137 233.16 242.3 233.146 242.459 233.118C242.617 233.081 242.748 233.039 242.851 232.992V233.944C242.72 233.991 242.552 234.028 242.347 234.056C242.151 234.093 241.964 234.112 241.787 234.112ZM247.559 234.21C246.896 234.21 246.322 234.075 245.837 233.804C245.351 233.524 244.978 233.109 244.717 232.558C244.455 232.007 244.325 231.321 244.325 230.5C244.325 229.296 244.595 228.395 245.137 227.798C245.687 227.191 246.439 226.888 247.391 226.888C248.137 226.888 248.735 227.056 249.183 227.392C249.64 227.728 249.967 228.181 250.163 228.75C250.359 229.319 250.452 229.963 250.443 230.682H244.829L244.899 229.758H249.785L249.393 229.898C249.365 229.198 249.187 228.675 248.861 228.33C248.543 227.985 248.053 227.812 247.391 227.812C246.933 227.812 246.551 227.896 246.243 228.064C245.944 228.232 245.72 228.526 245.571 228.946C245.421 229.357 245.347 229.935 245.347 230.682C245.347 231.531 245.543 232.18 245.935 232.628C246.336 233.067 246.896 233.286 247.615 233.286C247.96 233.286 248.277 233.263 248.567 233.216C248.856 233.16 249.122 233.085 249.365 232.992C249.607 232.899 249.822 232.796 250.009 232.684V233.72C249.673 233.879 249.299 234 248.889 234.084C248.487 234.168 248.044 234.21 247.559 234.21ZM254.529 234.112C254.034 234.112 253.619 233.963 253.283 233.664C252.947 233.356 252.779 232.903 252.779 232.306V227.938H251.561V227.014H252.779V225.04H253.787V227.014H255.593V227.938H253.787V231.984C253.787 232.376 253.848 232.67 253.969 232.866C254.09 233.062 254.338 233.16 254.711 233.16C254.879 233.16 255.042 233.146 255.201 233.118C255.36 233.081 255.49 233.039 255.593 232.992V233.944C255.462 233.991 255.294 234.028 255.089 234.056C254.893 234.093 254.706 234.112 254.529 234.112ZM260.343 234.21C259.727 234.21 259.2 234.103 258.761 233.888C258.322 233.673 257.986 233.361 257.753 232.95C257.529 232.539 257.417 232.035 257.417 231.438V227.014H258.425V231.214C258.425 231.923 258.579 232.446 258.887 232.782C259.204 233.109 259.69 233.272 260.343 233.272C260.996 233.272 261.477 233.109 261.785 232.782C262.102 232.446 262.261 231.923 262.261 231.214V227.014H263.269V231.438C263.269 232.325 263.012 233.011 262.499 233.496C261.995 233.972 261.276 234.21 260.343 234.21ZM265.511 234V227.574C265.623 227.527 265.837 227.448 266.155 227.336C266.481 227.224 266.869 227.121 267.317 227.028C267.774 226.935 268.245 226.888 268.731 226.888C268.805 226.888 268.88 226.897 268.955 226.916C269.029 226.935 269.104 226.953 269.179 226.972V227.868C268.936 227.84 268.698 227.826 268.465 227.826C268.241 227.826 268.021 227.84 267.807 227.868C267.592 227.887 267.377 227.915 267.163 227.952C266.948 227.989 266.733 228.027 266.519 228.064V234H265.511ZM269.735 234V232.6H271.135V234H269.735ZM19.864 254L16.28 244.662H17.358L20.592 253.146H20.228L23.406 244.69L24.442 244.662L20.858 254H19.864ZM25.8987 254V247.014H26.9067V254H25.8987ZM25.8427 245.768V244.662H26.9627V245.768H25.8427ZM31.5299 254L28.5759 247.014H29.6539L32.2299 253.132L32.0059 253.188L34.5119 247.014H35.5199L32.5519 254H31.5299ZM39.5274 254.21C38.8648 254.21 38.2908 254.075 37.8054 253.804C37.3201 253.524 36.9468 253.109 36.6854 252.558C36.4241 252.007 36.2934 251.321 36.2934 250.5C36.2934 249.296 36.5641 248.395 37.1054 247.798C37.6561 247.191 38.4074 246.888 39.3594 246.888C40.1061 246.888 40.7034 247.056 41.1514 247.392C41.6088 247.728 41.9354 248.181 42.1314 248.75C42.3274 249.319 42.4208 249.963 42.4114 250.682H36.7974L36.8674 249.758H41.7534L41.3614 249.898C41.3334 249.198 41.1561 248.675 40.8294 248.33C40.5121 247.985 40.0221 247.812 39.3594 247.812C38.9021 247.812 38.5194 247.896 38.2114 248.064C37.9128 248.232 37.6888 248.526 37.5394 248.946C37.3901 249.357 37.3154 249.935 37.3154 250.682C37.3154 251.531 37.5114 252.18 37.9034 252.628C38.3048 253.067 38.8648 253.286 39.5834 253.286C39.9288 253.286 40.2461 253.263 40.5354 253.216C40.8248 253.16 41.0908 253.085 41.3334 252.992C41.5761 252.899 41.7908 252.796 41.9774 252.684V253.72C41.6414 253.879 41.2681 254 40.8574 254.084C40.4561 254.168 40.0128 254.21 39.5274 254.21ZM44.2997 254V247.574C44.4117 247.527 44.6264 247.448 44.9437 247.336C45.2704 247.224 45.6577 247.121 46.1057 247.028C46.563 246.935 47.0344 246.888 47.5197 246.888C47.5944 246.888 47.669 246.897 47.7437 246.916C47.8184 246.935 47.893 246.953 47.9677 246.972V247.868C47.725 247.84 47.487 247.826 47.2537 247.826C47.0297 247.826 46.8104 247.84 46.5957 247.868C46.381 247.887 46.1664 247.915 45.9517 247.952C45.737 247.989 45.5224 248.027 45.3077 248.064V254H44.2997ZM49.577 254V247.574C49.689 247.527 49.9037 247.448 50.221 247.336C50.5477 247.224 50.935 247.121 51.383 247.028C51.8404 246.935 52.3117 246.888 52.797 246.888C52.8717 246.888 52.9464 246.897 53.021 246.916C53.0957 246.935 53.1704 246.953 53.245 246.972V247.868C53.0024 247.84 52.7644 247.826 52.531 247.826C52.307 247.826 52.0877 247.84 51.873 247.868C51.6584 247.887 51.4437 247.915 51.229 247.952C51.0144 247.989 50.7997 248.027 50.585 248.064V254H49.577ZM57.2624 254.21C56.9544 254.21 56.6417 254.177 56.3244 254.112C56.0164 254.047 55.727 253.935 55.4564 253.776C55.195 253.617 54.9804 253.403 54.8124 253.132C54.6537 252.852 54.5744 252.502 54.5744 252.082C54.5744 251.503 54.6817 251.041 54.8964 250.696C55.1204 250.341 55.4237 250.089 55.8064 249.94C56.1984 249.781 56.6464 249.702 57.1504 249.702C57.533 249.702 57.8644 249.725 58.1444 249.772C58.4244 249.819 58.6717 249.889 58.8864 249.982C59.1104 250.066 59.311 250.164 59.4884 250.276L59.6844 251.2C59.4697 251.041 59.157 250.906 58.7464 250.794C58.345 250.673 57.9017 250.612 57.4164 250.612C56.8284 250.612 56.3757 250.724 56.0584 250.948C55.741 251.172 55.5824 251.499 55.5824 251.928C55.5824 252.273 55.6757 252.549 55.8624 252.754C56.0584 252.959 56.301 253.104 56.5904 253.188C56.889 253.272 57.1924 253.314 57.5004 253.314C58.107 253.314 58.5644 253.272 58.8724 253.188C59.1897 253.095 59.3484 252.889 59.3484 252.572V249.366C59.3484 248.825 59.1897 248.428 58.8724 248.176C58.555 247.924 58.1024 247.798 57.5144 247.798C57.141 247.798 56.7444 247.854 56.3244 247.966C55.9137 248.069 55.559 248.237 55.2604 248.47V247.462C55.5497 247.275 55.937 247.135 56.4224 247.042C56.9077 246.939 57.379 246.888 57.8364 246.888C58.1444 246.888 58.429 246.921 58.6904 246.986C58.9517 247.042 59.185 247.131 59.3904 247.252C59.5957 247.364 59.7684 247.513 59.9084 247.7C60.0577 247.877 60.1697 248.087 60.2444 248.33C60.3284 248.563 60.3704 248.829 60.3704 249.128V252.516C60.3704 253.011 60.221 253.379 59.9224 253.622C59.633 253.865 59.2504 254.023 58.7744 254.098C58.3077 254.173 57.8037 254.21 57.2624 254.21ZM68.6409 254.21C68.1369 254.21 67.7122 254.159 67.3669 254.056C67.0309 253.953 66.6809 253.809 66.3169 253.622V252.558C66.6062 252.717 66.8629 252.852 67.0869 252.964C67.3109 253.076 67.5395 253.16 67.7729 253.216C68.0062 253.263 68.2722 253.286 68.5709 253.286C69.0375 253.286 69.4155 253.183 69.7049 252.978C70.0035 252.773 70.1529 252.507 70.1529 252.18C70.1529 251.919 70.0782 251.718 69.9289 251.578C69.7889 251.438 69.6069 251.321 69.3829 251.228C69.1589 251.135 68.9255 251.037 68.6829 250.934C68.4122 250.859 68.1369 250.78 67.8569 250.696C67.5862 250.603 67.3342 250.486 67.1009 250.346C66.8769 250.197 66.6949 250.01 66.5549 249.786C66.4149 249.553 66.3449 249.254 66.3449 248.89C66.3449 248.535 66.4149 248.232 66.5549 247.98C66.7042 247.728 66.8955 247.523 67.1289 247.364C67.3622 247.196 67.6235 247.075 67.9129 247C68.2022 246.925 68.4915 246.888 68.7809 246.888C69.2009 246.888 69.5602 246.944 69.8589 247.056C70.1575 247.168 70.4655 247.294 70.7829 247.434V248.442C70.4282 248.255 70.1109 248.106 69.8309 247.994C69.5509 247.873 69.2195 247.812 68.8369 247.812C68.4542 247.812 68.1089 247.891 67.8009 248.05C67.5022 248.199 67.3529 248.433 67.3529 248.75C67.3529 249.011 67.4275 249.221 67.5769 249.38C67.7355 249.529 67.9409 249.651 68.1929 249.744C68.4449 249.828 68.7155 249.912 69.0049 249.996C69.2382 250.071 69.4809 250.155 69.7329 250.248C69.9849 250.332 70.2182 250.449 70.4329 250.598C70.6475 250.738 70.8202 250.925 70.9509 251.158C71.0909 251.391 71.1609 251.69 71.1609 252.054C71.1609 252.549 71.0349 252.959 70.7829 253.286C70.5309 253.603 70.2089 253.837 69.8169 253.986C69.4342 254.135 69.0422 254.21 68.6409 254.21ZM75.9356 254.21C75.273 254.21 74.699 254.075 74.2136 253.804C73.7283 253.524 73.355 253.109 73.0936 252.558C72.8323 252.007 72.7016 251.321 72.7016 250.5C72.7016 249.296 72.9723 248.395 73.5136 247.798C74.0643 247.191 74.8156 246.888 75.7676 246.888C76.5143 246.888 77.1116 247.056 77.5596 247.392C78.017 247.728 78.3436 248.181 78.5396 248.75C78.7356 249.319 78.829 249.963 78.8196 250.682H73.2056L73.2756 249.758H78.1616L77.7696 249.898C77.7416 249.198 77.5643 248.675 77.2376 248.33C76.9203 247.985 76.4303 247.812 75.7676 247.812C75.3103 247.812 74.9276 247.896 74.6196 248.064C74.321 248.232 74.097 248.526 73.9476 248.946C73.7983 249.357 73.7236 249.935 73.7236 250.682C73.7236 251.531 73.9196 252.18 74.3116 252.628C74.713 253.067 75.273 253.286 75.9916 253.286C76.337 253.286 76.6543 253.263 76.9436 253.216C77.233 253.16 77.499 253.085 77.7416 252.992C77.9843 252.899 78.199 252.796 78.3856 252.684V253.72C78.0496 253.879 77.6763 254 77.2656 254.084C76.8643 254.168 76.421 254.21 75.9356 254.21ZM83.6059 254.21C83.2699 254.21 82.9152 254.159 82.5419 254.056C82.1686 253.963 81.8139 253.785 81.4779 253.524C81.1512 253.253 80.8806 252.871 80.6659 252.376C80.4606 251.872 80.3579 251.219 80.3579 250.416C80.3579 249.333 80.6192 248.479 81.1419 247.854C81.6739 247.219 82.4766 246.902 83.5499 246.902C83.7552 246.902 83.9979 246.93 84.2779 246.986C84.5579 247.042 84.8332 247.112 85.1039 247.196C85.3746 247.28 85.5986 247.369 85.7759 247.462L85.4259 247.812V244.06H86.4339V252.796C86.4339 253.057 86.3406 253.281 86.1539 253.468C85.9766 253.645 85.7432 253.79 85.4539 253.902C85.1646 254.005 84.8566 254.079 84.5299 254.126C84.2032 254.182 83.8952 254.21 83.6059 254.21ZM83.6199 253.286C84.1052 253.286 84.5252 253.23 84.8799 253.118C85.2439 253.006 85.4259 252.866 85.4259 252.698V248.316C85.1366 248.148 84.8239 248.027 84.4879 247.952C84.1612 247.868 83.8486 247.826 83.5499 247.826C83.0459 247.826 82.6352 247.938 82.3179 248.162C82.0099 248.377 81.7812 248.68 81.6319 249.072C81.4919 249.455 81.4219 249.903 81.4219 250.416C81.4219 250.92 81.4779 251.391 81.5899 251.83C81.7019 252.259 81.9166 252.609 82.2339 252.88C82.5512 253.151 83.0132 253.286 83.6199 253.286ZM93.7471 254H92.7391V244.354H93.7471V254ZM98.401 254.21C98.093 254.21 97.7804 254.177 97.463 254.112C97.155 254.047 96.8657 253.935 96.595 253.776C96.3337 253.617 96.119 253.403 95.951 253.132C95.7924 252.852 95.713 252.502 95.713 252.082C95.713 251.503 95.8204 251.041 96.035 250.696C96.259 250.341 96.5624 250.089 96.945 249.94C97.337 249.781 97.785 249.702 98.289 249.702C98.6717 249.702 99.003 249.725 99.283 249.772C99.563 249.819 99.8104 249.889 100.025 249.982C100.249 250.066 100.45 250.164 100.627 250.276L100.823 251.2C100.608 251.041 100.296 250.906 99.885 250.794C99.4837 250.673 99.0404 250.612 98.555 250.612C97.967 250.612 97.5144 250.724 97.197 250.948C96.8797 251.172 96.721 251.499 96.721 251.928C96.721 252.273 96.8144 252.549 97.001 252.754C97.197 252.959 97.4397 253.104 97.729 253.188C98.0277 253.272 98.331 253.314 98.639 253.314C99.2457 253.314 99.703 253.272 100.011 253.188C100.328 253.095 100.487 252.889 100.487 252.572V249.366C100.487 248.825 100.328 248.428 100.011 248.176C99.6937 247.924 99.241 247.798 98.653 247.798C98.2797 247.798 97.883 247.854 97.463 247.966C97.0524 248.069 96.6977 248.237 96.399 248.47V247.462C96.6884 247.275 97.0757 247.135 97.561 247.042C98.0464 246.939 98.5177 246.888 98.975 246.888C99.283 246.888 99.5677 246.921 99.829 246.986C100.09 247.042 100.324 247.131 100.529 247.252C100.734 247.364 100.907 247.513 101.047 247.7C101.196 247.877 101.308 248.087 101.383 248.33C101.467 248.563 101.509 248.829 101.509 249.128V252.516C101.509 253.011 101.36 253.379 101.061 253.622C100.772 253.865 100.389 254.023 99.913 254.098C99.4464 254.173 98.9424 254.21 98.401 254.21ZM106.615 254.21C105.523 254.21 104.711 253.888 104.179 253.244C103.656 252.591 103.395 251.685 103.395 250.528C103.395 249.315 103.67 248.405 104.221 247.798C104.781 247.191 105.57 246.888 106.587 246.888C107.343 246.888 107.959 247.042 108.435 247.35C108.911 247.649 109.261 248.073 109.485 248.624C109.709 249.165 109.821 249.8 109.821 250.528C109.821 251.676 109.541 252.577 108.981 253.23C108.43 253.883 107.642 254.21 106.615 254.21ZM106.601 253.286C107.17 253.286 107.614 253.165 107.931 252.922C108.248 252.67 108.472 252.339 108.603 251.928C108.743 251.508 108.813 251.041 108.813 250.528C108.813 249.977 108.743 249.501 108.603 249.1C108.463 248.689 108.23 248.372 107.903 248.148C107.586 247.924 107.152 247.812 106.601 247.812C106.041 247.812 105.602 247.933 105.285 248.176C104.968 248.419 104.739 248.745 104.599 249.156C104.468 249.557 104.403 250.015 104.403 250.528C104.403 251.349 104.566 252.017 104.893 252.53C105.22 253.034 105.789 253.286 106.601 253.286ZM111.716 254V247.574C111.828 247.527 112.042 247.448 112.36 247.336C112.686 247.224 113.074 247.121 113.522 247.028C113.979 246.935 114.45 246.888 114.936 246.888C115.01 246.888 115.085 246.897 115.16 246.916C115.234 246.935 115.309 246.953 115.384 246.972V247.868C115.141 247.84 114.903 247.826 114.67 247.826C114.446 247.826 114.226 247.84 114.012 247.868C113.797 247.887 113.582 247.915 113.368 247.952C113.153 247.989 112.938 248.027 112.724 248.064V254H111.716ZM119.385 254.21C118.722 254.21 118.148 254.075 117.663 253.804C117.178 253.524 116.804 253.109 116.543 252.558C116.282 252.007 116.151 251.321 116.151 250.5C116.151 249.296 116.422 248.395 116.963 247.798C117.514 247.191 118.265 246.888 119.217 246.888C119.964 246.888 120.561 247.056 121.009 247.392C121.466 247.728 121.793 248.181 121.989 248.75C122.185 249.319 122.278 249.963 122.269 250.682H116.655L116.725 249.758H121.611L121.219 249.898C121.191 249.198 121.014 248.675 120.687 248.33C120.37 247.985 119.88 247.812 119.217 247.812C118.76 247.812 118.377 247.896 118.069 248.064C117.77 248.232 117.546 248.526 117.397 248.946C117.248 249.357 117.173 249.935 117.173 250.682C117.173 251.531 117.369 252.18 117.761 252.628C118.162 253.067 118.722 253.286 119.441 253.286C119.786 253.286 120.104 253.263 120.393 253.216C120.682 253.16 120.948 253.085 121.191 252.992C121.434 252.899 121.648 252.796 121.835 252.684V253.72C121.499 253.879 121.126 254 120.715 254.084C120.314 254.168 119.87 254.21 119.385 254.21ZM127.041 254.21C126.378 254.21 125.804 254.075 125.319 253.804C124.834 253.524 124.46 253.109 124.199 252.558C123.938 252.007 123.807 251.321 123.807 250.5C123.807 249.296 124.078 248.395 124.619 247.798C125.17 247.191 125.921 246.888 126.873 246.888C127.62 246.888 128.217 247.056 128.665 247.392C129.122 247.728 129.449 248.181 129.645 248.75C129.841 249.319 129.934 249.963 129.925 250.682H124.311L124.381 249.758H129.267L128.875 249.898C128.847 249.198 128.67 248.675 128.343 248.33C128.026 247.985 127.536 247.812 126.873 247.812C126.416 247.812 126.033 247.896 125.725 248.064C125.426 248.232 125.202 248.526 125.053 248.946C124.904 249.357 124.829 249.935 124.829 250.682C124.829 251.531 125.025 252.18 125.417 252.628C125.818 253.067 126.378 253.286 127.097 253.286C127.442 253.286 127.76 253.263 128.049 253.216C128.338 253.16 128.604 253.085 128.847 252.992C129.09 252.899 129.304 252.796 129.491 252.684V253.72C129.155 253.879 128.782 254 128.371 254.084C127.97 254.168 127.526 254.21 127.041 254.21ZM134.011 254.112C133.517 254.112 133.101 253.963 132.765 253.664C132.429 253.356 132.261 252.903 132.261 252.306V247.938H131.043V247.014H132.261V245.04H133.269V247.014H135.075V247.938H133.269V251.984C133.269 252.376 133.33 252.67 133.451 252.866C133.573 253.062 133.82 253.16 134.193 253.16C134.361 253.16 134.525 253.146 134.683 253.118C134.842 253.081 134.973 253.039 135.075 252.992V253.944C134.945 253.991 134.777 254.028 134.571 254.056C134.375 254.093 134.189 254.112 134.011 254.112ZM143.844 254.21C143.181 254.21 142.607 254.075 142.122 253.804C141.637 253.524 141.263 253.109 141.002 252.558C140.741 252.007 140.61 251.321 140.61 250.5C140.61 249.296 140.881 248.395 141.422 247.798C141.973 247.191 142.724 246.888 143.676 246.888C144.423 246.888 145.02 247.056 145.468 247.392C145.925 247.728 146.252 248.181 146.448 248.75C146.644 249.319 146.737 249.963 146.728 250.682H141.114L141.184 249.758H146.07L145.678 249.898C145.65 249.198 145.473 248.675 145.146 248.33C144.829 247.985 144.339 247.812 143.676 247.812C143.219 247.812 142.836 247.896 142.528 248.064C142.229 248.232 142.005 248.526 141.856 248.946C141.707 249.357 141.632 249.935 141.632 250.682C141.632 251.531 141.828 252.18 142.22 252.628C142.621 253.067 143.181 253.286 143.9 253.286C144.245 253.286 144.563 253.263 144.852 253.216C145.141 253.16 145.407 253.085 145.65 252.992C145.893 252.899 146.107 252.796 146.294 252.684V253.72C145.958 253.879 145.585 254 145.174 254.084C144.773 254.168 144.329 254.21 143.844 254.21ZM151.542 254.21C150.926 254.21 150.399 254.103 149.96 253.888C149.521 253.673 149.185 253.361 148.952 252.95C148.728 252.539 148.616 252.035 148.616 251.438V247.014H149.624V251.214C149.624 251.923 149.778 252.446 150.086 252.782C150.403 253.109 150.889 253.272 151.542 253.272C152.195 253.272 152.676 253.109 152.984 252.782C153.301 252.446 153.46 251.923 153.46 251.214V247.014H154.468V251.438C154.468 252.325 154.211 253.011 153.698 253.496C153.194 253.972 152.475 254.21 151.542 254.21ZM163.64 254.21C162.548 254.21 161.736 253.888 161.204 253.244C160.682 252.591 160.42 251.685 160.42 250.528C160.42 249.315 160.696 248.405 161.246 247.798C161.806 247.191 162.595 246.888 163.612 246.888C164.368 246.888 164.984 247.042 165.46 247.35C165.936 247.649 166.286 248.073 166.51 248.624C166.734 249.165 166.846 249.8 166.846 250.528C166.846 251.676 166.566 252.577 166.006 253.23C165.456 253.883 164.667 254.21 163.64 254.21ZM163.626 253.286C164.196 253.286 164.639 253.165 164.956 252.922C165.274 252.67 165.498 252.339 165.628 251.928C165.768 251.508 165.838 251.041 165.838 250.528C165.838 249.977 165.768 249.501 165.628 249.1C165.488 248.689 165.255 248.372 164.928 248.148C164.611 247.924 164.177 247.812 163.626 247.812C163.066 247.812 162.628 247.933 162.31 248.176C161.993 248.419 161.764 248.745 161.624 249.156C161.494 249.557 161.428 250.015 161.428 250.528C161.428 251.349 161.592 252.017 161.918 252.53C162.245 253.034 162.814 253.286 163.626 253.286ZM168.741 254V247.574C168.853 247.527 169.068 247.448 169.385 247.336C169.712 247.224 170.099 247.121 170.547 247.028C171.004 246.935 171.476 246.888 171.961 246.888C172.036 246.888 172.11 246.897 172.185 246.916C172.26 246.935 172.334 246.953 172.409 246.972V247.868C172.166 247.84 171.928 247.826 171.695 247.826C171.471 247.826 171.252 247.84 171.037 247.868C170.822 247.887 170.608 247.915 170.393 247.952C170.178 247.989 169.964 248.027 169.749 248.064V254H168.741ZM174.018 247.574C174.242 247.462 174.471 247.364 174.704 247.28C174.947 247.187 175.19 247.112 175.432 247.056C175.684 247 175.936 246.958 176.188 246.93C176.45 246.902 176.711 246.888 176.972 246.888C177.654 246.888 178.195 246.991 178.596 247.196C178.998 247.392 179.287 247.681 179.464 248.064C179.651 248.447 179.744 248.909 179.744 249.45V254H178.736V249.45C178.736 249.282 178.713 249.105 178.666 248.918C178.629 248.731 178.55 248.554 178.428 248.386C178.307 248.209 178.12 248.069 177.868 247.966C177.616 247.854 177.28 247.798 176.86 247.798C176.571 247.798 176.272 247.821 175.964 247.868C175.656 247.915 175.344 247.985 175.026 248.078V254H174.018V247.574ZM184.397 254.21C184.089 254.21 183.776 254.177 183.459 254.112C183.151 254.047 182.862 253.935 182.591 253.776C182.33 253.617 182.115 253.403 181.947 253.132C181.788 252.852 181.709 252.502 181.709 252.082C181.709 251.503 181.816 251.041 182.031 250.696C182.255 250.341 182.558 250.089 182.941 249.94C183.333 249.781 183.781 249.702 184.285 249.702C184.668 249.702 184.999 249.725 185.279 249.772C185.559 249.819 185.806 249.889 186.021 249.982C186.245 250.066 186.446 250.164 186.623 250.276L186.819 251.2C186.604 251.041 186.292 250.906 185.881 250.794C185.48 250.673 185.036 250.612 184.551 250.612C183.963 250.612 183.51 250.724 183.193 250.948C182.876 251.172 182.717 251.499 182.717 251.928C182.717 252.273 182.81 252.549 182.997 252.754C183.193 252.959 183.436 253.104 183.725 253.188C184.024 253.272 184.327 253.314 184.635 253.314C185.242 253.314 185.699 253.272 186.007 253.188C186.324 253.095 186.483 252.889 186.483 252.572V249.366C186.483 248.825 186.324 248.428 186.007 248.176C185.69 247.924 185.237 247.798 184.649 247.798C184.276 247.798 183.879 247.854 183.459 247.966C183.048 248.069 182.694 248.237 182.395 248.47V247.462C182.684 247.275 183.072 247.135 183.557 247.042C184.042 246.939 184.514 246.888 184.971 246.888C185.279 246.888 185.564 246.921 185.825 246.986C186.086 247.042 186.32 247.131 186.525 247.252C186.73 247.364 186.903 247.513 187.043 247.7C187.192 247.877 187.304 248.087 187.379 248.33C187.463 248.563 187.505 248.829 187.505 249.128V252.516C187.505 253.011 187.356 253.379 187.057 253.622C186.768 253.865 186.385 254.023 185.909 254.098C185.442 254.173 184.938 254.21 184.397 254.21ZM189.741 254V247.574C189.853 247.527 190.068 247.448 190.385 247.336C190.712 247.224 191.099 247.121 191.547 247.028C192.004 246.935 192.476 246.888 192.961 246.888C193.036 246.888 193.11 246.897 193.185 246.916C193.26 246.935 193.334 246.953 193.409 246.972V247.868C193.166 247.84 192.928 247.826 192.695 247.826C192.471 247.826 192.252 247.84 192.037 247.868C191.822 247.887 191.608 247.915 191.393 247.952C191.178 247.989 190.964 248.027 190.749 248.064V254H189.741ZM197.41 254.21C196.748 254.21 196.174 254.075 195.688 253.804C195.203 253.524 194.83 253.109 194.568 252.558C194.307 252.007 194.176 251.321 194.176 250.5C194.176 249.296 194.447 248.395 194.988 247.798C195.539 247.191 196.29 246.888 197.242 246.888C197.989 246.888 198.586 247.056 199.034 247.392C199.492 247.728 199.818 248.181 200.014 248.75C200.21 249.319 200.304 249.963 200.294 250.682H194.68L194.75 249.758H199.636L199.244 249.898C199.216 249.198 199.039 248.675 198.712 248.33C198.395 247.985 197.905 247.812 197.242 247.812C196.785 247.812 196.402 247.896 196.094 248.064C195.796 248.232 195.572 248.526 195.422 248.946C195.273 249.357 195.198 249.935 195.198 250.682C195.198 251.531 195.394 252.18 195.786 252.628C196.188 253.067 196.748 253.286 197.466 253.286C197.812 253.286 198.129 253.263 198.418 253.216C198.708 253.16 198.974 253.085 199.216 252.992C199.459 252.899 199.674 252.796 199.86 252.684V253.72C199.524 253.879 199.151 254 198.74 254.084C198.339 254.168 197.896 254.21 197.41 254.21ZM202.183 254V252.6H203.583V254H202.183Z" fill="#C0C4CE"/>
</svg>
